<svg xmlns="http://www.w3.org/2000/svg" width="48" height="49" viewBox="0 0 48 49" fill="none">
  <path d="M27.7155 2.68818C26.1112 -0.229393 21.8888 -0.229393 20.282 2.68818C18.1691 6.52998 16.4273 10.5647 15.0803 14.7376C15.0168 14.9009 14.9051 15.0409 14.76 15.139C14.6149 15.2371 14.4434 15.2886 14.2683 15.2867C10.6585 15.3806 7.06049 15.7393 3.50318 16.3601C0.213359 16.9338 -1.23594 20.883 1.26404 23.3278C1.57899 23.6364 1.89723 23.9434 2.21875 24.2487C4.62722 26.5306 7.17738 28.658 9.854 30.6181C9.9756 30.6988 10.0677 30.8169 10.1165 30.9545C10.1653 31.0922 10.1682 31.2419 10.1247 31.3813C8.7734 35.4381 7.80784 39.6134 7.24084 43.8518C6.77332 47.3578 10.4839 49.5097 13.38 48.0226C16.8959 46.2196 20.2578 44.1304 23.4316 41.7762C23.5978 41.6586 23.7964 41.5954 24 41.5954C24.2036 41.5954 24.4022 41.6586 24.5684 41.7762C27.7403 44.1332 31.1024 46.2225 34.62 48.0226C37.5161 49.5097 41.2267 47.3578 40.7592 43.8518C40.193 39.6135 39.2282 35.4382 37.8778 31.3813C37.8343 31.2419 37.8371 31.0922 37.8859 30.9545C37.9347 30.8169 38.0269 30.6988 38.1485 30.6181C41.1811 28.397 44.0509 25.9615 46.736 23.3303C49.2359 20.883 47.7866 16.9338 44.4968 16.3601C40.9387 15.7392 37.3398 15.3804 33.7292 15.2867C33.5546 15.2881 33.3836 15.2363 33.239 15.1383C33.0944 15.0402 32.9831 14.9005 32.9197 14.7376C31.577 10.5631 29.8325 6.52798 27.7155 2.68818Z" fill="#F8F251"/>
</svg>