<svg xmlns="http://www.w3.org/2000/svg" width="18" height="21" viewBox="0 0 18 21" fill="none">
  <path d="M0 18.2143V7.92857C0 7.56666 0.0798748 7.22381 0.239625 6.9C0.399375 6.57619 0.6195 6.30952 0.9 6.1L7.65 0.957143C8.04375 0.652381 8.49375 0.5 9 0.5C9.50625 0.5 9.95625 0.652381 10.35 0.957143L17.1 6.1C17.3812 6.30952 17.6017 6.57619 17.7615 6.9C17.9212 7.22381 18.0007 7.56666 18 7.92857V18.2143C18 18.8429 17.7795 19.3811 17.3385 19.8291C16.8975 20.2771 16.368 20.5008 15.75 20.5H12.375C12.0562 20.5 11.7892 20.3903 11.574 20.1709C11.3587 19.9514 11.2507 19.6802 11.25 19.3571V13.6429C11.25 13.319 11.142 13.0478 10.926 12.8291C10.71 12.6105 10.443 12.5008 10.125 12.5H7.875C7.55625 12.5 7.28925 12.6097 7.074 12.8291C6.85875 13.0486 6.75075 13.3198 6.75 13.6429V19.3571C6.75 19.6809 6.642 19.9526 6.426 20.172C6.21 20.3914 5.943 20.5008 5.625 20.5H2.25C1.63125 20.5 1.10175 20.2764 0.6615 19.8291C0.22125 19.3819 0.00075 18.8436 0 18.2143Z" fill="#002732"/>
</svg>