<svg xmlns="http://www.w3.org/2000/svg" width="20" height="27" viewBox="0 0 20 27" fill="none">
  <path d="M2.875 26.5C2.22187 26.5 1.66296 26.2577 1.19825 25.7732C0.733541 25.2887 0.500792 24.7056 0.5 24.0238V11.6429C0.5 10.9619 0.73275 10.3792 1.19825 9.89467C1.66375 9.41016 2.22267 9.16749 2.875 9.16667H4.0625V6.69048C4.0625 4.97778 4.6416 3.51806 5.79981 2.31133C6.95802 1.1046 8.35808 0.500826 10 0.500001C11.6419 0.499175 13.0424 1.10295 14.2014 2.31133C15.3604 3.51972 15.9391 4.97943 15.9375 6.69048V9.16667H17.125C17.7781 9.16667 18.3374 9.40933 18.8029 9.89467C19.2684 10.38 19.5008 10.9627 19.5 11.6429V24.0238C19.5 24.7048 19.2676 25.2879 18.8029 25.7732C18.3382 26.2586 17.7789 26.5008 17.125 26.5H2.875ZM10 20.3095C10.6531 20.3095 11.2124 20.0673 11.6779 19.5828C12.1434 19.0983 12.3758 18.5151 12.375 17.8333C12.3742 17.1516 12.1419 16.5688 11.6779 16.0851C11.214 15.6015 10.6547 15.3588 10 15.3571C9.34529 15.3555 8.78637 15.5982 8.32325 16.0851C7.86012 16.5721 7.62737 17.1549 7.625 17.8333C7.62262 18.5118 7.85537 19.095 8.32325 19.5828C8.79112 20.0706 9.35004 20.3128 10 20.3095ZM6.4375 9.16667H13.5625V6.69048C13.5625 5.65873 13.2161 4.78175 12.5234 4.05952C11.8307 3.3373 10.9896 2.97619 10 2.97619C9.01042 2.97619 8.16927 3.3373 7.47656 4.05952C6.78385 4.78175 6.4375 5.65873 6.4375 6.69048V9.16667Z" fill="#F85151"/>
</svg>