<svg width="116" height="122" viewBox="0 0 116 122" fill="none" xmlns="http://www.w3.org/2000/svg">
<rect opacity="0.9" x="0.45282" y="6.90564" width="115.094" height="115.094" rx="10" fill="#FFFED5"/>
<path d="M20.4025 112.792C17.4484 112.792 14.9204 111.742 12.8186 109.64C10.7167 107.538 9.66395 105.008 9.66037 102.05V26.8554C9.66037 23.9013 10.7131 21.3733 12.8186 19.2714C14.924 17.1695 17.452 16.1168 20.4025 16.1132H95.5975C98.5516 16.1132 101.081 17.166 103.187 19.2714C105.292 21.3769 106.343 23.9049 106.34 26.8554V102.05C106.34 105.004 105.289 107.534 103.187 109.64C101.085 111.745 98.5551 112.796 95.5975 112.792H20.4025ZM25.7736 91.3082H90.2264L70.0849 64.4528L53.9717 85.9371L41.8868 69.8239L25.7736 91.3082Z" fill="#5E5C20"/>
<path fill-rule="evenodd" clip-rule="evenodd" d="M91.9528 0C79.5584 0 69.5094 11.288 69.5094 23.9689C69.5094 36.5512 76.6716 50.2276 87.8485 55.4782C89.1331 56.0828 90.5343 56.3962 91.9528 56.3962C93.3713 56.3962 94.7725 56.0828 96.0571 55.4782C107.234 50.2276 114.396 36.5512 114.396 23.9689C114.396 11.288 104.347 0 91.9528 0ZM91.9528 28.1987C93.4409 28.1987 94.868 27.6045 95.9203 26.5469C96.9725 25.4892 97.5636 24.0547 97.5636 22.559C97.5636 21.0632 96.9725 19.6287 95.9203 18.5711C94.868 17.5134 93.4409 16.9192 91.9528 16.9192C90.4647 16.9192 89.0376 17.5134 87.9853 18.5711C86.9331 19.6287 86.3419 21.0632 86.3419 22.559C86.3419 24.0547 86.9331 25.4892 87.9853 26.5469C89.0376 27.6045 90.4647 28.1987 91.9528 28.1987Z" fill="#F8F251"/>
</svg>
