<svg xmlns="http://www.w3.org/2000/svg" width="18" height="18" viewBox="0 0 18 18" fill="none">
  <path d="M10.3159 1.27498C9.74772 0.241673 8.25229 0.241673 7.68322 1.27498C6.93488 2.63562 6.31799 4.0646 5.84095 5.54249C5.81845 5.60031 5.77887 5.6499 5.72749 5.68464C5.67611 5.71938 5.61537 5.73763 5.55336 5.73695C4.2749 5.7702 3.00059 5.89727 1.74071 6.11713C0.575565 6.32031 0.0622727 7.71898 0.947679 8.58486C1.05923 8.69415 1.17194 8.80286 1.28581 8.91098C2.13881 9.71917 3.04199 10.4726 3.98996 11.1668C4.03302 11.1954 4.06565 11.2372 4.08294 11.286C4.10022 11.3347 4.10123 11.3878 4.08582 11.4371C3.60725 12.8739 3.26528 14.3527 3.06446 15.8538C2.89889 17.0955 4.21305 17.8576 5.23876 17.3309C6.48398 16.6923 7.67463 15.9524 8.79869 15.1187C8.85756 15.077 8.92789 15.0546 9 15.0546C9.07211 15.0546 9.14244 15.077 9.20131 15.1187C10.3247 15.9534 11.5154 16.6934 12.7612 17.3309C13.7869 17.8576 15.1011 17.0955 14.9355 15.8538C14.735 14.3527 14.3933 12.8739 13.9151 11.4371C13.8996 11.3878 13.9006 11.3347 13.9179 11.286C13.9352 11.2372 13.9678 11.1954 14.0109 11.1668C15.085 10.3802 16.1014 9.51762 17.0523 8.58573C17.9377 7.71898 17.4244 6.32031 16.2593 6.11713C14.9991 5.89722 13.7245 5.77015 12.4458 5.73695C12.3839 5.73745 12.3234 5.71912 12.2721 5.68439C12.2209 5.64966 12.1815 5.60017 12.1591 5.54249C11.6835 4.06403 11.0657 2.63491 10.3159 1.27498Z" fill="#F8F251"/>
</svg>